{
  "accessors": [
    {
      "bufferView": 2,
      "componentType": 5126,
      "count": 218,
      "max": [
        0.06299000233411789,
        0.0036619999445974827,
        1.7390669584274292
      ],
      "min": [
        -0.06299000233411789,
        -0.04223800078034401,
        1.6682640314102173
      ],
      "type": "VEC3"
    },
    {
      "bufferView": 2,
      "byteOffset": 2616,
      "componentType": 5126,
      "count": 218,
      "max": [
        0.7343824505805969,
        -0.6758979558944702,
        0.12111085653305054
      ],
      "min": [
        -0.7363448143005371,
        -0.9910210371017456,
        -0.08393958956003189
      ],
      "type": "VEC3"
    },
    {
      "bufferView": 1,
      "componentType": 5126,
      "count": 218,
      "max": [
        0.9902340173721313,
        0.988083004951477
      ],
      "min": [
        0.01995900087058544,
        0.020019054412841797
      ],
      "type": "VEC2"
    },
    {
      "bufferView": 0,
      "componentType": 5125,
      "count": 1104,
      "type": "SCALAR"
    },
    {
      "bufferView": 2,
      "byteOffset": 5232,
      "componentType": 5126,
      "count": 18030,
      "max": [
        0.6006039977073669,
        0.19727200269699097,
        1.6291999816894531
      ],
      "min": [
        -0.6006039977073669,
        -0.09033499658107758,
        1.0266430377960205
      ],
      "type": "VEC3"
    },
    {
      "bufferView": 2,
      "byteOffset": 221592,
      "componentType": 5126,
      "count": 18030,
      "max": [
        0.9980527758598328,
        0.9999966025352478,
        0.9921861290931702
      ],
      "min": [
        -0.999969482421875,
        -0.9999963641166687,
        -0.9882835149765015
      ],
      "type": "VEC3"
    },
    {
      "bufferView": 1,
      "byteOffset": 1744,
      "componentType": 5126,
      "count": 18030,
      "max": [
        0.9985349774360657,
        0.9993420243263245
      ],
      "min": [
        0.0014489999739453197,
        0.0019530057907104492
      ],
      "type": "VEC2"
    },
    {
      "bufferView": 0,
      "byteOffset": 4416,
      "componentType": 5125,
      "count": 98454,
      "type": "SCALAR"
    },
    {
      "bufferView": 2,
      "byteOffset": 437952,
      "componentType": 5126,
      "count": 2396,
      "max": [
        0.06689699739217758,
        0.005371000152081251,
        1.7424850463867188
      ],
      "min": [
        -0.06689699739217758,
        -0.04638800024986267,
        1.6663110256195068
      ],
      "type": "VEC3"
    },
    {
      "bufferView": 2,
      "byteOffset": 466704,
      "componentType": 5126,
      "count": 2396,
      "max": [
        0.8047016859054565,
        0.9897392392158508,
        0.9971943497657776
      ],
      "min": [
        -0.8066529035568237,
        -0.9892164468765259,
        -0.972686231136322
      ],
      "type": "VEC3"
    },
    {
      "bufferView": 1,
      "byteOffset": 145984,
      "componentType": 5126,
      "count": 2396,
      "max": [
        0.9838870167732239,
        0.7525629997253418
      ],
      "min": [
        0.016341999173164368,
        0.1879880428314209
      ],
      "type": "VEC2"
    },
    {
      "bufferView": 0,
      "byteOffset": 398232,
      "componentType": 5125,
      "count": 6048,
      "type": "SCALAR"
    },
    {
      "bufferView": 2,
      "byteOffset": 495456,
      "componentType": 5126,
      "count": 3938,
      "max": [
        0.08496399968862534,
        0.1586959958076477,
        1.8076720237731934
      ],
      "min": [
        -0.08496399968862534,
        -0.0551769994199276,
        1.5720690488815308
      ],
      "type": "VEC3"
    },
    {
      "bufferView": 2,
      "byteOffset": 542712,
      "componentType": 5126,
      "count": 3938,
      "max": [
        1.0,
        1.0,
        0.9995608329772949
      ],
      "min": [
        -1.0,
        -1.0,
        -1.0
      ],
      "type": "VEC3"
    },
    {
      "bufferView": 1,
      "byteOffset": 165152,
      "componentType": 5126,
      "count": 3938,
      "max": [
        0.9928210973739624,
        0.9952009916305542
      ],
      "min": [
        0.028656000271439552,
        0.008301019668579102
      ],
      "type": "VEC2"
    },
    {
      "bufferView": 0,
      "byteOffset": 422424,
      "componentType": 5125,
      "count": 19425,
      "type": "SCALAR"
    },
    {
      "bufferView": 2,
      "byteOffset": 589968,
      "componentType": 5126,
      "count": 2206,
      "max": [
        0.6181830167770386,
        0.002440999960526824,
        1.1704460382461548
      ],
      "min": [
        -0.6181830167770386,
        -0.11206399649381638,
        1.0647300481796265
      ],
      "type": "VEC3"
    },
    {
      "bufferView": 2,
      "byteOffset": 616440,
      "componentType": 5126,
      "count": 2206,
      "max": [
        0.9394763708114624,
        0.9957486391067505,
        0.9687555432319641
      ],
      "min": [
        -0.9414158463478088,
        -0.9996791481971741,
        -0.9804714918136597
      ],
      "type": "VEC3"
    },
    {
      "bufferView": 1,
      "byteOffset": 196656,
      "componentType": 5126,
      "count": 2206,
      "max": [
        0.9868159890174866,
        0.9955790042877197
      ],
      "min": [
        0.007083999924361706,
        0.009905815124511719
      ],
      "type": "VEC2"
    },
    {
      "bufferView": 0,
      "byteOffset": 500124,
      "componentType": 5125,
      "count": 9984,
      "type": "SCALAR"
    },
    {
      "bufferView": 2,
      "byteOffset": 642912,
      "componentType": 5126,
      "count": 3632,
      "max": [
        0.06543199717998505,
        0.0029299999587237835,
        1.7327189445495605
      ],
      "min": [
        -0.06543199717998505,
        -0.04541200026869774,
        1.6682640314102173
      ],
      "type": "VEC3"
    },
    {
      "bufferView": 2,
      "byteOffset": 686496,
      "componentType": 5126,
      "count": 3632,
      "max": [
        0.7812716960906982,
        0.9856440424919128,
        0.9824392795562744
      ],
      "min": [
        -0.783219039440155,
        -0.9856822490692139,
        -0.9882925748825073
      ],
      "type": "VEC3"
    },
    {
      "bufferView": 1,
      "byteOffset": 214304,
      "componentType": 5126,
      "count": 3632,
      "max": [
        0.9770510196685791,
        0.6540529727935791
      ],
      "min": [
        0.025390999391674995,
        0.3486330509185791
      ],
      "type": "VEC2"
    },
    {
      "bufferView": 0,
      "byteOffset": 540060,
      "componentType": 5125,
      "count": 6888,
      "type": "SCALAR"
    },
    {
      "bufferView": 2,
      "byteOffset": 730080,
      "componentType": 5126,
      "count": 2314,
      "max": [
        0.188727006316185,
        0.16846199333667755,
        0.1213420033454895
      ],
      "min": [
        -0.188727006316185,
        -0.1130409985780716,
        -0.0009769999887794256
      ],
      "type": "VEC3"
    },
    {
      "bufferView": 2,
      "byteOffset": 757848,
      "componentType": 5126,
      "count": 2314,
      "max": [
        0.9960991144180298,
        0.9983644485473633,
        0.9355442523956299
      ],
      "min": [
        -0.9980511665344238,
        -0.9998834729194641,
        -1.0
      ],
      "type": "VEC3"
    },
    {
      "bufferView": 1,
      "byteOffset": 243360,
      "componentType": 5126,
      "count": 2314,
      "max": [
        0.9919863939285278,
        0.9951099753379822
      ],
      "min": [
        0.01023900043219328,
        0.006836056709289551
      ],
      "type": "VEC2"
    },
    {
      "bufferView": 0,
      "byteOffset": 567612,
      "componentType": 5125,
      "count": 12384,
      "type": "SCALAR"
    },
    {
      "bufferView": 2,
      "byteOffset": 785616,
      "componentType": 5126,
      "count": 15854,
      "max": [
        0.7231670022010803,
        -0.027344999834895134,
        1.1489609479904175
      ],
      "min": [
        -0.7231670022010803,
        -0.22241899371147156,
        0.9824519753456116
      ],
      "type": "VEC3"
    },
    {
      "bufferView": 2,
      "byteOffset": 975864,
      "componentType": 5126,
      "count": 15854,
      "max": [
        0.9960993528366089,
        0.9998839497566223,
        0.9863426685333252
      ],
      "min": [
        -0.9980480074882507,
        -0.9998997449874878,
        -0.9961010813713074
      ],
      "type": "VEC3"
    },
    {
      "bufferView": 1,
      "byteOffset": 261872,
      "componentType": 5126,
      "count": 15854,
      "max": [
        0.9933857917785645,
        0.9953460097312927
      ],
      "min": [
        0.005282999947667122,
        0.0029300451278686523
      ],
      "type": "VEC2"
    },
    {
      "bufferView": 0,
      "byteOffset": 617148,
      "componentType": 5125,
      "count": 89268,
      "type": "SCALAR"
    },
    {
      "bufferView": 2,
      "byteOffset": 1166112,
      "componentType": 5126,
      "count": 8564,
      "max": [
        0.1691949963569641,
        0.18457600474357605,
        1.0837730169296265
      ],
      "min": [
        -0.1691949963569641,
        -0.061524998396635056,
        0.11401700228452682
      ],
      "type": "VEC3"
    },
    {
      "bufferView": 2,
      "byteOffset": 1268880,
      "componentType": 5126,
      "count": 8564,
      "max": [
        0.9960982799530029,
        0.9999906420707703,
        0.6113101840019226
      ],
      "min": [
        -0.9980490207672119,
        -0.9999455213546753,
        -0.9999982714653015
      ],
      "type": "VEC3"
    },
    {
      "bufferView": 1,
      "byteOffset": 388704,
      "componentType": 5126,
      "count": 8564,
      "max": [
        0.9943677186965942,
        0.9972519874572754
      ],
      "min": [
        0.0036700000055134296,
        0.0034180879592895508
      ],
      "type": "VEC2"
    },
    {
      "bufferView": 0,
      "byteOffset": 974220,
      "componentType": 5125,
      "count": 49500,
      "type": "SCALAR"
    }
  ],
  "asset": {
    "extras": {
      "author": "AmigoPogo (https://sketchfab.com/amigopogo)",
      "license": "CC-BY-4.0 (http://creativecommons.org/licenses/by/4.0/)",
      "source": "https://sketchfab.com/3d-models/spider-man-far-from-home-no-way-home-suit-f9e608ae1fae44adb503f3c8494ba910",
      "title": "Spider Man Far From Home / No Way Home SUIT"
    },
    "generator": "Sketchfab-11.60.0",
    "version": "2.0"
  },
  "bufferViews": [
    {
      "buffer": 0,
      "byteLength": 1172220,
      "name": "floatBufferViews",
      "target": 34963
    },
    {
      "buffer": 0,
      "byteLength": 457216,
      "byteOffset": 1172220,
      "byteStride": 8,
      "name": "floatBufferViews",
      "target": 34962
    },
    {
      "buffer": 0,
      "byteLength": 1371648,
      "byteOffset": 1629436,
      "byteStride": 12,
      "name": "floatBufferViews",
      "target": 34962
    }
  ],
  "buffers": [
    {
      "byteLength": 3001084,
      "uri": "scene.bin"
    }
  ],
  "images": [
    {
      "uri": "textures/24_body_0_0_0.001_baseColor.png"
    },
    {
      "uri": "textures/24_head_0_0_0.001_baseColor.png"
    },
    {
      "uri": "textures/24_webshooter_0_0_0.001_baseColor.png"
    },
    {
      "uri": "textures/24_boots_0_0_0.001_baseColor.png"
    },
    {
      "uri": "textures/24_gloves_0_0_0.001_baseColor.png"
    },
    {
      "uri": "textures/24_legs_0_0_0.001_baseColor.png"
    }
  ],
  "materials": [
    {
      "doubleSided": true,
      "name": "24_eye_0_0_0.001",
      "pbrMetallicRoughness": {
        "metallicFactor": 0.0,
        "roughnessFactor": 0.8239417257461427
      }
    },
    {
      "doubleSided": true,
      "name": "24_body_0_0_0.001",
      "pbrMetallicRoughness": {
        "baseColorTexture": {
          "index": 0
        },
        "metallicFactor": 0.0,
        "roughnessFactor": 0.8239417257461427
      }
    },
    {
      "doubleSided": true,
      "name": "24_eyelineup_0_0_0.001",
      "pbrMetallicRoughness": {
        "baseColorFactor": [
          0.00388594,
          0.00388594,
          0.00388594,
          1.0
        ],
        "metallicFactor": 0.0,
        "roughnessFactor": 0.9989645843835407
      }
    },
    {
      "doubleSided": true,
      "name": "24_head_0_0_0.001",
      "pbrMetallicRoughness": {
        "baseColorTexture": {
          "index": 1
        },
        "metallicFactor": 0.0,
        "roughnessFactor": 0.8239417257461427
      }
    },
    {
      "doubleSided": true,
      "name": "24_webshooter_0_0_0.001",
      "pbrMetallicRoughness": {
        "baseColorTexture": {
          "index": 2
        },
        "metallicFactor": 0.0,
        "roughnessFactor": 0.8239417257461427
      }
    },
    {
      "doubleSided": true,
      "name": "24_eyelinelow_0_0_0.001",
      "pbrMetallicRoughness": {
        "baseColorFactor": [
          0.00694089,
          0.00694089,
          0.00694089,
          1.0
        ],
        "metallicFactor": 0.0,
        "roughnessFactor": 0.9987779988848141
      }
    },
    {
      "doubleSided": true,
      "name": "24_boots_0_0_0.001",
      "pbrMetallicRoughness": {
        "baseColorTexture": {
          "index": 3
        },
        "metallicFactor": 0.0,
        "roughnessFactor": 0.8239417257461427
      }
    },
    {
      "doubleSided": true,
      "name": "24_gloves_0_0_0.001",
      "pbrMetallicRoughness": {
        "baseColorTexture": {
          "index": 4
        },
        "metallicFactor": 0.0,
        "roughnessFactor": 0.6984886810507039
      }
    },
    {
      "doubleSided": true,
      "name": "24_legs_0_0_0.001",
      "pbrMetallicRoughness": {
        "baseColorTexture": {
          "index": 5
        },
        "metallicFactor": 0.0,
        "roughnessFactor": 0.8239417257461427
      }
    }
  ],
  "meshes": [
    {
      "name": "24_eye_0_0_0_24_eye_0_0_0.001_0",
      "primitives": [
        {
          "attributes": {
            "NORMAL": 1,
            "POSITION": 0,
            "TEXCOORD_0": 2
          },
          "indices": 3,
          "material": 0,
          "mode": 4
        }
      ]
    },
    {
      "name": "24_body_0_0_0_24_body_0_0_0.001_0",
      "primitives": [
        {
          "attributes": {
            "NORMAL": 5,
            "POSITION": 4,
            "TEXCOORD_0": 6
          },
          "indices": 7,
          "material": 1,
          "mode": 4
        }
      ]
    },
    {
      "name": "24_eyelineup_0_0_0_24_eyelineup_0_0_0.001_0",
      "primitives": [
        {
          "attributes": {
            "NORMAL": 9,
            "POSITION": 8,
            "TEXCOORD_0": 10
          },
          "indices": 11,
          "material": 2,
          "mode": 4
        }
      ]
    },
    {
      "name": "24_head_0_0_0_24_head_0_0_0.001_0",
      "primitives": [
        {
          "attributes": {
            "NORMAL": 13,
            "POSITION": 12,
            "TEXCOORD_0": 14
          },
          "indices": 15,
          "material": 3,
          "mode": 4
        }
      ]
    },
    {
      "name": "24_webshooter_0_0_0_24_webshooter_0_0_0.001_0",
      "primitives": [
        {
          "attributes": {
            "NORMAL": 17,
            "POSITION": 16,
            "TEXCOORD_0": 18
          },
          "indices": 19,
          "material": 4,
          "mode": 4
        }
      ]
    },
    {
      "name": "24_eyelinelow_0_0_0_24_eyelinelow_0_0_0.001_0",
      "primitives": [
        {
          "attributes": {
            "NORMAL": 21,
            "POSITION": 20,
            "TEXCOORD_0": 22
          },
          "indices": 23,
          "material": 5,
          "mode": 4
        }
      ]
    },
    {
      "name": "24_boots_0_0_0_24_boots_0_0_0.001_0",
      "primitives": [
        {
          "attributes": {
            "NORMAL": 25,
            "POSITION": 24,
            "TEXCOORD_0": 26
          },
          "indices": 27,
          "material": 6,
          "mode": 4
        }
      ]
    },
    {
      "name": "24_gloves_0_0_0_24_gloves_0_0_0.001_0",
      "primitives": [
        {
          "attributes": {
            "NORMAL": 29,
            "POSITION": 28,
            "TEXCOORD_0": 30
          },
          "indices": 31,
          "material": 7,
          "mode": 4
        }
      ]
    },
    {
      "name": "24_legs_0_0_0_24_legs_0_0_0.001_0",
      "primitives": [
        {
          "attributes": {
            "NORMAL": 33,
            "POSITION": 32,
            "TEXCOORD_0": 34
          },
          "indices": 35,
          "material": 8,
          "mode": 4
        }
      ]
    }
  ],
  "nodes": [
    {
      "children": [
        1
      ],
      "matrix": [
        1.0,
        0.0,
        0.0,
        0.0,
        0.0,
        2.220446049250313e-16,
        -1.0,
        0.0,
        0.0,
        1.0,
        2.220446049250313e-16,
        0.0,
        0.0,
        0.0,
        0.0,
        1.0
      ],
      "name": "Sketchfab_model"
    },
    {
      "children": [
        2
      ],
      "matrix": [
        0.009999999776482582,
        0.0,
        0.0,
        0.0,
        0.0,
        0.0,
        0.009999999776482582,
        0.0,
        0.0,
        -0.009999999776482582,
        0.0,
        0.0,
        0.0,
        0.0,
        0.0,
        1.0
      ],
      "name": "f336289b1f7a47b4a5be615110810256.fbx"
    },
    {
      "children": [
        3,
        5,
        7,
        9,
        11,
        13,
        15,
        17,
        19
      ],
      "name": "RootNode"
    },
    {
      "children": [
        4
      ],
      "matrix": [
        99.99998474121087,
        -9.536746824777875e-07,
        -3.814697664097216e-06,
        0.0,
        -3.8146984015472744e-06,
        -1.629206787256976e-05,
        -99.9999999999986,
        0.0,
        9.536740609846415e-07,
        99.99998474120959,
        -1.6292065431006403e-05,
        0.0,
        -2.6226043701171875e-06,
        1.33514404296875e-05,
        -3.814697265625e-06,
        1.0
      ],
      "name": "24_eye_0_0_0"
    },
    {
      "mesh": 0,
      "name": "24_eye_0_0_0_24_eye_0_0_0.001_0"
    },
    {
      "children": [
        6
      ],
      "matrix": [
        99.99998474121087,
        -9.536746824777875e-07,
        -3.814697664097216e-06,
        0.0,
        -3.8146984015472744e-06,
        -1.629206787256976e-05,
        -99.9999999999986,
        0.0,
        9.536740609846415e-07,
        99.99998474120959,
        -1.6292065431006403e-05,
        0.0,
        -2.6226043701171875e-06,
        1.33514404296875e-05,
        -3.814697265625e-06,
        1.0
      ],
      "name": "24_body_0_0_0"
    },
    {
      "mesh": 1,
      "name": "24_body_0_0_0_24_body_0_0_0.001_0"
    },
    {
      "children": [
        8
      ],
      "matrix": [
        99.99998474121087,
        -9.536746824777875e-07,
        -3.814697664097216e-06,
        0.0,
        -3.8146984015472744e-06,
        -1.629206787256976e-05,
        -99.9999999999986,
        0.0,
        9.536740609846415e-07,
        99.99998474120959,
        -1.6292065431006403e-05,
        0.0,
        -2.6226043701171875e-06,
        1.33514404296875e-05,
        -3.814697265625e-06,
        1.0
      ],
      "name": "24_eyelineup_0_0_0"
    },
    {
      "mesh": 2,
      "name": "24_eyelineup_0_0_0_24_eyelineup_0_0_0.001_0"
    },
    {
      "children": [
        10
      ],
      "matrix": [
        99.99998474121087,
        -9.536746824777875e-07,
        -3.814697664097216e-06,
        0.0,
        -3.8146984015472744e-06,
        -1.629206787256976e-05,
        -99.9999999999986,
        0.0,
        9.536740609846415e-07,
        99.99998474120959,
        -1.6292065431006403e-05,
        0.0,
        -2.6226043701171875e-06,
        1.33514404296875e-05,
        -3.814697265625e-06,
        1.0
      ],
      "name": "24_head_0_0_0"
    },
    {
      "mesh": 3,
      "name": "24_head_0_0_0_24_head_0_0_0.001_0"
    },
    {
      "children": [
        12
      ],
      "matrix": [
        99.99998474121087,
        -9.536746824777875e-07,
        -3.814697664097216e-06,
        0.0,
        -3.8146984015472744e-06,
        -1.629206787256976e-05,
        -99.9999999999986,
        0.0,
        9.536740609846415e-07,
        99.99998474120959,
        -1.6292065431006403e-05,
        0.0,
        -2.6226043701171875e-06,
        1.33514404296875e-05,
        -3.814697265625e-06,
        1.0
      ],
      "name": "24_webshooter_0_0_0"
    },
    {
      "mesh": 4,
      "name": "24_webshooter_0_0_0_24_webshooter_0_0_0.001_0"
    },
    {
      "children": [
        14
      ],
      "matrix": [
        99.99998474121087,
        -9.536746824777875e-07,
        -3.814697664097216e-06,
        0.0,
        -3.8146984015472744e-06,
        -1.629206787256976e-05,
        -99.9999999999986,
        0.0,
        9.536740609846415e-07,
        99.99998474120959,
        -1.6292065431006403e-05,
        0.0,
        -2.6226043701171875e-06,
        1.33514404296875e-05,
        -3.814697265625e-06,
        1.0
      ],
      "name": "24_eyelinelow_0_0_0"
    },
    {
      "mesh": 5,
      "name": "24_eyelinelow_0_0_0_24_eyelinelow_0_0_0.001_0"
    },
    {
      "children": [
        16
      ],
      "matrix": [
        99.99998474121087,
        -9.536746824777875e-07,
        -3.814697664097216e-06,
        0.0,
        -3.8146984015472744e-06,
        -1.629206787256976e-05,
        -99.9999999999986,
        0.0,
        9.536740609846415e-07,
        99.99998474120959,
        -1.6292065431006403e-05,
        0.0,
        -2.6226043701171875e-06,
        1.33514404296875e-05,
        -3.814697265625e-06,
        1.0
      ],
      "name": "24_boots_0_0_0"
    },
    {
      "mesh": 6,
      "name": "24_boots_0_0_0_24_boots_0_0_0.001_0"
    },
    {
      "children": [
        18
      ],
      "matrix": [
        99.99998474121087,
        -9.536746824777875e-07,
        -3.814697664097216e-06,
        0.0,
        -3.8146984015472744e-06,
        -1.629206787256976e-05,
        -99.9999999999986,
        0.0,
        9.536740609846415e-07,
        99.99998474120959,
        -1.6292065431006403e-05,
        0.0,
        -2.6226043701171875e-06,
        1.33514404296875e-05,
        -3.814697265625e-06,
        1.0
      ],
      "name": "24_gloves_0_0_0"
    },
    {
      "mesh": 7,
      "name": "24_gloves_0_0_0_24_gloves_0_0_0.001_0"
    },
    {
      "children": [
        20
      ],
      "matrix": [
        99.99998474121087,
        -9.536746824777875e-07,
        -3.814697664097216e-06,
        0.0,
        -3.8146984015472744e-06,
        -1.629206787256976e-05,
        -99.9999999999986,
        0.0,
        9.536740609846415e-07,
        99.99998474120959,
        -1.6292065431006403e-05,
        0.0,
        -2.6226043701171875e-06,
        1.33514404296875e-05,
        -3.814697265625e-06,
        1.0
      ],
      "name": "24_legs_0_0_0"
    },
    {
      "mesh": 8,
      "name": "24_legs_0_0_0_24_legs_0_0_0.001_0"
    }
  ],
  "samplers": [
    {
      "magFilter": 9729,
      "minFilter": 9987,
      "wrapS": 10497,
      "wrapT": 10497
    }
  ],
  "scene": 0,
  "scenes": [
    {
      "name": "Sketchfab_Scene",
      "nodes": [
        0
      ]
    }
  ],
  "textures": [
    {
      "sampler": 0,
      "source": 0
    },
    {
      "sampler": 0,
      "source": 1
    },
    {
      "sampler": 0,
      "source": 2
    },
    {
      "sampler": 0,
      "source": 3
    },
    {
      "sampler": 0,
      "source": 4
    },
    {
      "sampler": 0,
      "source": 5
    }
  ]
}
